# xmcd
# 
# Track frame offsets:
#     150
#     26927
#     41802
#     55817
#     84545
#     119117
#     132362
#     145020
#     163357
# 
# Disc length: 2407
# 
# Revision: 11
# Processed by: cddbd v1.5.2PL0 Copyright (c) Steve Scherf et al.
# Submitted via: fre:ac v1.1beta1pre5
# 
DISCID=88096509
DTITLE=Stevie Ray Vaughan and Double Trouble - In The Beginning
DYEAR=1980
DGENRE=Blues
TTITLE0=In The Open
TTITLE1=Slide Thing
TTITLE2=They Call Me Guitar Hurricane
TTITLE3=All Your Love I Miss Loving
TTITLE4=Tin Pan Alley
TTITLE5=Love Struck Baby
TTITLE6=Tell Me
TTITLE7=Shake For Me
TTITLE8=Live Another Day
EXTD=Broadcast live from Austin, Texas, April 1, 1980.\n YEAR: 1980
EXTT0=
EXTT1=
EXTT2=
EXTT3=
EXTT4=
EXTT5=
EXTT6=
EXTT7=
EXTT8=
PLAYORDER=
